<svg xmlns="http://www.w3.org/2000/svg" viewBox="0 0 240 160" shape-rendering="crispEdges">
  <defs>
    <linearGradient id="bg" x1="0%" y1="0%" x2="100%" y2="100%">
      <stop offset="0%" stop-color="#1a000a"/>
      <stop offset="100%" stop-color="#020408"/>
    </linearGradient>
  </defs>
  <rect width="240" height="160" fill="url(#bg)"/>
  <rect x="3" y="3" width="234" height="154" fill="none" stroke="#ff00ea" stroke-width="2"/>
  <rect x="7" y="7" width="226" height="146" fill="none" stroke="#9d4eff" stroke-width="1" stroke-dasharray="4 3"/>
  <g font-family="monospace" font-weight="700">
    <text x="120" y="46" font-size="32" fill="#ff00ea" text-anchor="middle" letter-spacing="3">CONVOY</text>
    <text x="120" y="66" font-size="10" fill="#9d4eff" text-anchor="middle">// 20-NODE RAID / ADVERSARY CHAIN</text>
  </g>
  <g stroke="#ff00ea" stroke-width="1.5" fill="#020408">
    <circle cx="20" cy="110" r="6"/>
    <circle cx="50" cy="100" r="6"/>
    <circle cx="80" cy="116" r="6"/>
    <circle cx="110" cy="98" r="6"/>
    <circle cx="140" cy="118" r="6"/>
    <circle cx="170" cy="104" r="6"/>
    <circle cx="200" cy="116" r="6"/>
    <circle cx="222" cy="100" r="6"/>
  </g>
  <g stroke="#9d4eff" stroke-width="1" fill="none" opacity="0.7">
    <path d="M20 110 L50 100 L80 116 L110 98 L140 118 L170 104 L200 116 L222 100"/>
  </g>
  <g fill="#ffe700">
    <circle cx="20" cy="110" r="2"/>
    <circle cx="222" cy="100" r="2"/>
  </g>
  <g font-family="monospace" font-size="9" fill="#9d4eff">
    <text x="14" y="148">[NODE_01..20]</text>
    <text x="160" y="148">[ADVERSARY:3]</text>
  </g>
</svg>
